<svg xmlns="http://www.w3.org/2000/svg" viewBox="0 0 178.888 49">
  <defs>
    <style>
      .cls-1 {
        fill: #ff4d00;
      }

      .cls-2 {
        fill: #00269a;
      }
    </style>
  </defs>
  <g id="Symbol_385_1" data-name="Symbol 385 – 1" transform="translate(-36.001 -91)">
    <g id="Group_671" data-name="Group 671" transform="translate(36.001 92.393)">
      <path id="Path_361" data-name="Path 361" class="cls-1" d="M1.008,40.35a10.523,10.523,0,0,1,1.78-11.611C7.742,22.933,21.366,7.993,21.366,4.2c0,0,1.316,4.722-4.877,13.469C9.523,27.345.079,35.009,1.008,40.35Z" transform="translate(-0.007 -2.342)"/>
      <path id="Path_362" data-name="Path 362" class="cls-2" d="M6.384,48.727S-.351,43.851,4.913,37.271,22.795,16.216,23.414,12.5c0,0,2.167,6.657-6.812,16.024C8.629,37.968,3.752,41.761,6.384,48.727Z" transform="translate(-0.661 -4.217)"/>
      <path id="Path_363" data-name="Path 363" class="cls-1" d="M12.409,53.925s-7.354-3.716-2.322-11.379C15.892,35.579,25.181,25.98,25.026,21.8c0,0,3.251,4.877-3.561,12.385C14.731,41.694,7.454,47.035,12.409,53.925Z" transform="translate(-1.886 -6.318)"/>
      <path id="Path_364" data-name="Path 364" class="cls-2" d="M49.954,43.988,31.841,1.8H26.964l10.76,27.4.852,2.09H25.416C24.177,32.686,22.861,34,21.7,35.318H40.278l.619,1.393L43.762,44.3l.619,1.935A18.66,18.66,0,0,1,47.864,46c.7,0,1.7.077,3.174.232Z" transform="translate(-4.907 -1.8)"/>
    </g>
    <g id="Group_672" data-name="Group 672" transform="translate(87.086 91)">
      <path id="Path_365" data-name="Path 365" class="cls-2" d="M74.979,1.8c.929,2.167,1.78,4.335,2.709,6.5l1.161,2.787,1.316,3.1L81.482,17.2l1.239,2.787.077.155V20.3a5.9,5.9,0,0,0-1.316-.077,6.282,6.282,0,0,0-1.316.077c-.852-2.4-1.78-4.8-2.787-7.122H70.49A49.357,49.357,0,0,0,67.858,20.3a4.091,4.091,0,0,0-.929-.077A4.442,4.442,0,0,0,66,20.3v-.155c1.393-2.864,2.709-5.728,3.948-8.67,1.471-3.174,3.1-6.5,4.335-9.676h.7Zm-3.87,10.3h5.806L73.973,5.283Z" transform="translate(-66 -0.407)"/>
      <path id="Path_366" data-name="Path 366" class="cls-2" d="M99.886,17.417c-1.239,1.7-2.167,2.787-4.412,2.787-3.483,0-5.573-2.4-5.573-6.5,0-3.948,2.322-6.657,5.806-6.657a4.512,4.512,0,0,1,4.18,2.632V7.2c0-2.4-.077-4.8-.077-7.2a6.258,6.258,0,0,0,1.161.077A5.886,5.886,0,0,0,102.053,0c-.077,1.006-.077,1.161-.155,3.251L101.821,6.5l-.077,3.406v3.716c0,2.013,0,3.948.077,5.961v.464a4.761,4.761,0,0,0-1.006-.077,6.018,6.018,0,0,0-1.006.077Zm-3.948,1.858c2.4,0,3.948-2.322,3.948-5.961,0-3.1-1.471-5.186-3.638-5.186-2.632,0-4.025,1.935-4.025,5.5C92.222,16.1,92.842,19.275,95.938,19.275Z" transform="translate(-71.399)"/>
      <path id="Path_367" data-name="Path 367" class="cls-2" d="M114.78,19.463c1.084-2.864,3.406-7.2,3.87-10.063.31,0,.542.077.852.077.232,0,.542-.077.774-.077a.24.24,0,0,0-.077.155c-.155.387-.542,1.161-1.084,2.322l-1.239,2.787a76.613,76.613,0,0,0-2.942,7.354,2.143,2.143,0,0,0-.7-.077,2.179,2.179,0,0,0-.852.077c-.619-1.548-1.161-3.1-1.78-4.645l-1.161-2.864-1.084-2.555c-.619-1.393-1.006-2.167-1.084-2.322a.27.27,0,0,1-.077-.155c.464,0,.852.077,1.239.077s.774-.077,1.239-.077c0,.077,0,.155.077.155a82.5,82.5,0,0,0,3.948,9.908h.077Z" transform="translate(-75.533 -2.124)"/>
      <path id="Path_368" data-name="Path 368" class="cls-2" d="M136.215,20.911a8.3,8.3,0,0,1-4.567,1.548c-4.025,0-6.348-2.477-6.348-6.657,0-3.948,2.4-6.5,6.193-6.5,3.483,0,5.419,2.09,5.419,5.651v.774c-1.006-.077-2.013-.077-4.412-.077-1.471,0-2.787,0-4.49.077h-.387v.387c0,3.329,1.7,5.264,4.567,5.264a5.369,5.369,0,0,0,4.1-1.858l.155.077Zm-4.8-10.76c-2.167,0-3.638,1.78-3.793,4.567,1.161.077,2.4,0,3.561.077,1.084,0,2.167,0,3.251-.077h.31C134.589,12.551,134.047,10.152,131.415,10.152Z" transform="translate(-79.396 -2.101)"/>
      <path id="Path_369" data-name="Path 369" class="cls-2" d="M145.393,9.532a3.769,3.769,0,0,0,.929-.077c0,.7-.077,1.393-.077,2.013v.387A4.736,4.736,0,0,1,150.58,9.3c2.787,0,4.335,1.626,4.335,4.49,0,1.548-.077,3.019-.077,4.567v3.716A6.258,6.258,0,0,0,153.676,22a7.655,7.655,0,0,0-1.161.077c.155-1.471.232-4.49.232-6.812,0-2.167-.232-4.645-3.1-4.645-3.174,0-3.483,2.477-3.483,5.032v3.638c0,.929.077,1.858.077,2.787A5.111,5.111,0,0,0,145.161,22a6.258,6.258,0,0,0-1.161.077,21.316,21.316,0,0,0,.155-3.329c.077-1.393.077-3.251.077-5.032,0-1.471,0-2.864-.077-4.335A10.6,10.6,0,0,0,145.393,9.532Z" transform="translate(-83.621 -2.101)"/>
      <path id="Path_370" data-name="Path 370" class="cls-2" d="M165.848,4.9v.232c0,1.161-.232,2.4-.232,3.561l2.942-.077a1.935,1.935,0,0,0,0,1.084h-2.864c0,.7,0,.774-.077,2.245v4.49c0,3.1.464,4.025,2.013,4.025a2.5,2.5,0,0,0,1.239-.232v.619a7.673,7.673,0,0,1-2.245.464c-1.935,0-3.1-1.239-3.1-3.406,0-2.322.155-4.645.155-6.889A5.9,5.9,0,0,0,163.6,9.7a12.542,12.542,0,0,0-1.7.077,1.317,1.317,0,0,0,.077-.542,1.317,1.317,0,0,0-.077-.542h1.78V8.538c0-.929-.077-1.858-.155-2.787Z" transform="translate(-87.665 -1.107)"/>
      <path id="Path_371" data-name="Path 371" class="cls-2" d="M175.987,3.193A1.393,1.393,0,1,1,174.593,1.8,1.439,1.439,0,0,1,175.987,3.193ZM175.6,17.05c0,1.78,0,2.167.077,3.251a6.685,6.685,0,0,0-1.161-.077,5.859,5.859,0,0,0-1.161.077,15.256,15.256,0,0,0,.155-3.251l.077-3.019V11.012a17.038,17.038,0,0,0-.155-3.329,6.258,6.258,0,0,0,1.161.077,11.812,11.812,0,0,0,1.393-.077,19.873,19.873,0,0,0-.155,3.406C175.677,13.8,175.6,14.8,175.6,17.05Z" transform="translate(-90.217 -0.407)"/>
      <path id="Path_372" data-name="Path 372" class="cls-2" d="M187.357,11.555a2.51,2.51,0,0,0-2.477-1.7,2.2,2.2,0,0,0-2.245,2.245c0,3.638,6.348,1.471,6.348,5.728,0,2.632-2.013,4.412-4.954,4.412a6.685,6.685,0,0,1-3.329-.929,8.457,8.457,0,0,0,.542-1.935h.232a3.489,3.489,0,0,0,3.1,1.858,2.426,2.426,0,0,0,2.632-2.4c0-3.406-6.348-1.316-6.348-6.115,0-2.167,1.858-3.716,4.412-3.716a6.212,6.212,0,0,1,3.019.7,5.268,5.268,0,0,0-.619,1.858h-.31Z" transform="translate(-91.912 -2.033)"/>
      <path id="Path_373" data-name="Path 373" class="cls-2" d="M197.648,4.9v.232c0,1.161-.232,2.4-.232,3.561l2.942-.077a1.935,1.935,0,0,0,0,1.084h-2.864c0,.7,0,.774-.077,2.245v4.49c0,3.1.464,4.025,2.013,4.025a2.5,2.5,0,0,0,1.239-.232v.619a7.674,7.674,0,0,1-2.245.464c-1.935,0-3.1-1.239-3.1-3.406,0-2.322.155-4.645.155-6.889A5.9,5.9,0,0,0,195.4,9.7a12.542,12.542,0,0,0-1.7.077,1.317,1.317,0,0,0,.077-.542,1.317,1.317,0,0,0-.077-.542h1.78V8.538c0-.929-.077-1.858-.155-2.787Z" transform="translate(-94.849 -1.107)"/>
    </g>
    <g id="Group_674" data-name="Group 674" transform="translate(87.318 116.545)">
      <g id="Group_673" data-name="Group 673">
        <path id="Path_374" data-name="Path 374" class="cls-2" d="M66.764,35.477h.851a8.023,8.023,0,0,0,1.548-.077,62.884,62.884,0,0,0-.31,6.58,6.659,6.659,0,0,0,.077,1.239,15.722,15.722,0,0,0,2.245.077H76.75c1.548,0,2.245,0,3.251-.077V40.277c0-1.626,0-3.251-.155-4.8a5.483,5.483,0,0,0,1.161.077,9.87,9.87,0,0,0,1.471-.077v.387l-.155,3.1-.077,3.019c-.077,1.935-.077,3.793-.077,5.651l.077,3.019a30.67,30.67,0,0,0,.155,3.174,4.761,4.761,0,0,0-1.084-.077,11.986,11.986,0,0,0-1.626.077v-.31l.155-2.709.077-3.019V44.534c-.929,0-1.858-.077-2.787-.077h-8.36V50.8a23.112,23.112,0,0,0,.155,2.864,8.023,8.023,0,0,0-1.239-.077c-.464,0-.929.077-1.393.077.31-3.87.31-7.741.31-11.611,0-2.167-.077-5.186-.232-6.657C66.61,35.4,66.687,35.4,66.764,35.477Z" transform="translate(-66.3 -33.542)"/>
        <path id="Path_375" data-name="Path 375" class="cls-2" d="M102.615,54.011a8.3,8.3,0,0,1-4.567,1.548c-4.025,0-6.348-2.477-6.348-6.657,0-3.948,2.4-6.5,6.193-6.5,3.483,0,5.419,2.09,5.419,5.651v.774c-1.006-.077-2.013-.077-4.412-.077-1.471,0-2.787,0-4.49.077h-.387v.387c0,3.329,1.7,5.264,4.567,5.264a5.369,5.369,0,0,0,4.1-1.858l.155.077Zm-4.8-10.682c-2.167,0-3.638,1.78-3.793,4.567,1.161.077,2.4,0,3.561.077,1.084,0,2.167,0,3.251-.077h.31C100.989,45.729,100.525,43.329,97.815,43.329Z" transform="translate(-72.038 -35.124)"/>
        <path id="Path_376" data-name="Path 376" class="cls-2" d="M110.939,43.771A7.844,7.844,0,0,1,115.2,42.3c2.787,0,4.412,1.548,4.412,4.18,0,1.471-.155,3.019-.155,4.49,0,3.019.155,3.329,1.084,3.329a1.744,1.744,0,0,0,.542-.077v.542a3.816,3.816,0,0,1-1.7.387,1.718,1.718,0,0,1-1.935-1.626,5.518,5.518,0,0,1-3.948,1.935c-2.4,0-3.793-1.161-3.793-3.251,0-4.567,5.264-3.019,7.741-4.8a3.206,3.206,0,0,0,.077-.774c0-2.013-1.161-3.251-3.019-3.251a3.577,3.577,0,0,0-3.329,1.935h-.232Zm4.722,5.186c-3.1.7-3.716,1.161-3.716,2.864a2.319,2.319,0,0,0,2.4,2.555,3.873,3.873,0,0,0,3.174-1.858c0-1.316.077-2.632.077-3.948A14.262,14.262,0,0,0,115.661,48.957Z" transform="translate(-76.104 -35.101)"/>
        <path id="Path_377" data-name="Path 377" class="cls-2" d="M129.822,36.174l-.077,3.251c0,1.316-.077,2.555-.077,3.638,0,.387,0,1.471.077,3.329V49.72c0,1.7.077,2.09.155,3.329a9.136,9.136,0,0,0-1.239-.077,6.685,6.685,0,0,0-1.161.077c.155-2.167.232-4.412.232-6.657V36.019c0-1.239-.077-2.167-.077-2.709V33a5.126,5.126,0,0,0,1.161.077A5.483,5.483,0,0,0,129.977,33C129.9,34.161,129.9,34.471,129.822,36.174Z" transform="translate(-80.126 -33)"/>
        <path id="Path_378" data-name="Path 378" class="cls-2" d="M138.248,38.1v.232c0,1.161-.232,2.4-.232,3.561l2.942-.077a1.935,1.935,0,0,0,0,1.084h-2.864c0,.7,0,.774-.077,2.245v4.49c0,3.1.464,4.025,2.013,4.025a2.5,2.5,0,0,0,1.239-.232v.619a7.673,7.673,0,0,1-2.245.464c-1.935,0-3.1-1.239-3.1-3.406,0-2.322.155-4.645.155-6.889A5.906,5.906,0,0,0,136,42.9a12.542,12.542,0,0,0-1.7.077,1.935,1.935,0,0,0,0-1.084h1.78v-.155c0-.929-.077-1.858-.155-2.787Z" transform="translate(-81.662 -34.152)"/>
        <path id="Path_379" data-name="Path 379" class="cls-2" d="M148.122,42.854A4.543,4.543,0,0,1,152.3,40.3c2.787,0,4.412,1.7,4.412,4.49,0,2.013-.077,3.948-.077,5.961,0,.774,0,1.548.077,2.322a4.761,4.761,0,0,0-1.084-.077,5.875,5.875,0,0,0-1.239.077c.155-1.471.232-4.1.232-6.038,0-2.245-.077-2.942-.387-3.716a2.969,2.969,0,0,0-2.787-1.7,3.384,3.384,0,0,0-2.942,1.7c-.464.852-.542,1.626-.542,3.793v3.1c0,1.393,0,1.78.077,2.864a5.886,5.886,0,0,0-1.084-.077c-.387,0-.774.077-1.161.077.155-1.471.155-3.483.232-6.348v-10.3a18.41,18.41,0,0,0-.155-3.329,5.859,5.859,0,0,0,1.161.077A5.483,5.483,0,0,0,148.2,33.1a23.815,23.815,0,0,0-.155,2.555c-.077,2.245-.077,4.567-.077,6.889v.232Z" transform="translate(-84.26 -33.023)"/>
        <path id="Path_380" data-name="Path 380" class="cls-2" d="M179.759,52.24a10.665,10.665,0,0,1-5.806,1.626c-6.038,0-9.754-3.561-9.754-9.367,0-5.961,3.948-9.6,10.373-9.6a14.03,14.03,0,0,1,5.573,1.084,10.4,10.4,0,0,0-.542,2.09l-.155.077a6.9,6.9,0,0,0-4.877-2.167c-4.722,0-7.586,3.174-7.586,8.515,0,5.032,2.787,8.283,7.122,8.283a8.774,8.774,0,0,0,5.883-2.245l.155.077Z" transform="translate(-88.416 -33.429)"/>
        <path id="Path_381" data-name="Path 381" class="cls-2" d="M189.039,43.771A7.844,7.844,0,0,1,193.3,42.3c2.787,0,4.412,1.548,4.412,4.18,0,1.471-.155,3.019-.155,4.49,0,3.019.155,3.329,1.084,3.329a1.744,1.744,0,0,0,.542-.077v.542a3.816,3.816,0,0,1-1.7.387,1.718,1.718,0,0,1-1.935-1.626,5.518,5.518,0,0,1-3.948,1.935c-2.4,0-3.793-1.161-3.793-3.251,0-4.567,5.264-3.019,7.741-4.8a3.207,3.207,0,0,0,.077-.774c0-2.013-1.161-3.251-3.019-3.251a3.577,3.577,0,0,0-3.329,1.935h-.232Zm4.722,5.186c-3.1.7-3.716,1.161-3.716,2.864a2.319,2.319,0,0,0,2.4,2.555,3.873,3.873,0,0,0,3.174-1.858c0-1.316.077-2.632.077-3.948A14.262,14.262,0,0,0,193.76,48.957Z" transform="translate(-93.748 -35.101)"/>
        <path id="Path_382" data-name="Path 382" class="cls-2" d="M211.528,42.4a1.4,1.4,0,0,1,.774.155,5.781,5.781,0,0,0-.232,1.548v.464l-.155.155a2.1,2.1,0,0,0-1.316-.464c-1.78,0-2.709,1.393-2.709,4.258v2.4c0,1.393.077,2.787.077,4.258a4.091,4.091,0,0,0-.929-.077,8.552,8.552,0,0,0-1.239.077V54.94L205.877,52V45.651l-.077-2.787v-.31a5.111,5.111,0,0,0,1.084.077,4.113,4.113,0,0,0,1.084-.077c0,.7-.077,1.471-.077,2.167v.464C208.974,44.026,209.748,42.4,211.528,42.4Z" transform="translate(-97.814 -35.124)"/>
        <path id="Path_383" data-name="Path 383" class="cls-2" d="M227.015,54.011a8.3,8.3,0,0,1-4.567,1.548c-4.025,0-6.348-2.477-6.348-6.657,0-3.948,2.4-6.5,6.193-6.5,3.483,0,5.419,2.09,5.419,5.651v.774c-1.006-.077-2.013-.077-4.412-.077-1.471,0-2.787,0-4.49.077h-.387v.387c0,3.329,1.7,5.264,4.567,5.264a5.369,5.369,0,0,0,4.1-1.858l.155.077Zm-4.8-10.682c-2.167,0-3.638,1.78-3.793,4.567,1.161.077,2.4,0,3.561.077,1.084,0,2.167,0,3.251-.077h.31C225.389,45.729,224.847,43.329,222.215,43.329Z" transform="translate(-100.141 -35.124)"/>
      </g>
    </g>
  </g>
</svg>
