<svg id="Layer_1" data-name="Layer 1" xmlns="http://www.w3.org/2000/svg" width="193.08" height="51.91" viewBox="0 0 193.08 51.91"><defs><style>.cls-1{fill:#ffcd00;}.cls-2{fill:#010101;}.cls-3{fill:#ce0e2d;}</style></defs><title>logo-um-capital</title><path d="M110.59,197.63a5.38,5.38,0,0,1-1.7-4.15,5.56,5.56,0,0,1,1.57-3.82,5.65,5.65,0,0,1,4.27-1.5,11.57,11.57,0,0,1,2,.17,12.07,12.07,0,0,0,1.43.21c.16,0,.19.07.19.15s0,.28-.07.79,0,1.23,0,1.44,0,.29-.12.29-.11-.1-.11-.29a2,2,0,0,0-.59-1.43,4.67,4.67,0,0,0-2.8-.8,4.31,4.31,0,0,0-3.23,1,4.7,4.7,0,0,0-1.26,3.66,5.06,5.06,0,0,0,5.06,5.13,3.25,3.25,0,0,0,2.44-.7,2.85,2.85,0,0,0,.52-1.18c0-.15,0-.21.14-.21s.09.1.09.21a13.92,13.92,0,0,1-.3,1.79c-.09.27-.12.3-.37.41a8.22,8.22,0,0,1-2.52.32A6.47,6.47,0,0,1,110.59,197.63Z" transform="translate(-83.23 -155.15)"/><path d="M122.75,190.18c.16-.4.21-.47.3-.47s.17.17.29.44c.23.5,2.2,5.42,3,7.23.44,1.06.78,1.22,1,1.3a1.56,1.56,0,0,0,.49.07c.07,0,.15,0,.15.1s-.14.1-.28.1-1.09,0-1.95,0c-.23,0-.43,0-.43-.09s0-.05.09-.08a.23.23,0,0,0,.11-.32l-1.11-2.73c0-.06,0-.07-.11-.07h-2.85s-.09,0-.12.1l-.7,1.9a2.49,2.49,0,0,0-.18.8c0,.24.21.32.42.32H121c.1,0,.12,0,.12.1s-.07.1-.18.1c-.29,0-1,0-1.11,0s-.74,0-1.24,0c-.16,0-.24,0-.24-.1a.11.11,0,0,1,.11-.1,2.4,2.4,0,0,0,.37,0c.56-.07.79-.49,1-1.09Zm1.38,4.95c.05,0,.05,0,0-.08L123,191.79q-.11-.28-.21,0l-1.15,3.26c0,.06,0,.08,0,.08Z" transform="translate(-83.23 -155.15)"/><path d="M129.05,193.38c0-1.84,0-2.18,0-2.56s-.1-.6-.51-.66l-.42,0a.12.12,0,0,1-.1-.09c0-.07.06-.1.2-.1.56,0,1.33,0,1.43,0l1.75,0a3.22,3.22,0,0,1,2.35.67,2,2,0,0,1,.62,1.43c0,1.71-1.29,2.84-3.18,2.84h-.35a.14.14,0,0,1-.13-.11c0-.1.07-.13.32-.13a2.08,2.08,0,0,0,2.29-1.92,2.44,2.44,0,0,0-.7-1.8,2.1,2.1,0,0,0-1.67-.58,4,4,0,0,0-.69.09c-.07,0-.1.09-.1.22v4.85c0,1.15,0,2.08.06,2.57s.11.58.49.63a4.16,4.16,0,0,0,.55.06.09.09,0,0,1,.09.1c0,.05-.05.1-.19.1-.67,0-1.49,0-1.54,0s-.84,0-1.22,0c-.13,0-.2,0-.2-.1a.1.1,0,0,1,.1-.1,1.67,1.67,0,0,0,.38-.06c.24-.05.27-.28.32-.63a24.15,24.15,0,0,0,.07-2.57v-2.11Z" transform="translate(-83.23 -155.15)"/><path d="M137.62,195.49c0,1.14,0,2.08.06,2.57s.08.58.45.63a4.48,4.48,0,0,0,.56.06.1.1,0,0,1,.1.1c0,.05-.06.1-.2.1-.69,0-1.48,0-1.54,0s-.84,0-1.22,0c-.13,0-.2,0-.2-.1a.1.1,0,0,1,.1-.1,1.67,1.67,0,0,0,.38-.06c.24-.05.28-.28.32-.63s.07-1.43.07-2.57v-2.11c0-1.84,0-2.18,0-2.56s-.13-.59-.4-.64a2.09,2.09,0,0,0-.38-.05.1.1,0,0,1-.09-.09c0-.07,0-.1.19-.1l1.25,0,1.23,0c.14,0,.2,0,.2.1a.12.12,0,0,1-.1.09,1.28,1.28,0,0,0-.31,0c-.34.07-.41.24-.44.66s0,.72,0,2.56v2.11Z" transform="translate(-83.23 -155.15)"/><path d="M144.08,195.49c0,1.14,0,2.08,0,2.57s.1.58.48.63a4.48,4.48,0,0,0,.56.06.09.09,0,0,1,.1.1c0,.05-.06.1-.2.1-.67,0-1.45,0-1.52,0s-.91,0-1.28,0c-.14,0-.19,0-.19-.1s0-.09.1-.09a1.49,1.49,0,0,0,.36,0c.25-.06.32-.3.36-.65s.06-1.43.06-2.57v-5l-1.78,0c-.77,0-1.06.1-1.25.38a1.77,1.77,0,0,0-.19.38c0,.1-.07.11-.13.11a.09.09,0,0,1-.08-.1c0-.12.25-1.19.26-1.29s.09-.22.13-.22a3.73,3.73,0,0,0,.55.14c.35,0,.82.06,1,.06h4.65a5.85,5.85,0,0,0,.89-.06c.18,0,.29-.06.35-.06s.05.07.05.14c0,.37,0,1.22,0,1.36s-.05.16-.11.16-.08,0-.1-.21v-.13c-.05-.36-.31-.63-1.49-.66l-1.54,0v5Z" transform="translate(-83.23 -155.15)"/><path d="M150.67,190.18c.15-.4.21-.47.29-.47s.17.17.3.44c.22.5,2.2,5.42,3,7.23.45,1.06.79,1.22,1,1.3a1.64,1.64,0,0,0,.49.07c.07,0,.16,0,.16.1s-.14.1-.28.1-1.09,0-1.95,0c-.24,0-.43,0-.43-.09s0-.05.08-.08a.22.22,0,0,0,.11-.32l-1.1-2.73c0-.06-.05-.07-.12-.07h-2.84c-.06,0-.1,0-.13.1l-.7,1.9a2.49,2.49,0,0,0-.18.8c0,.24.21.32.42.32h.11c.1,0,.13,0,.13.1s-.07.1-.18.1c-.3,0-1,0-1.11,0s-.74,0-1.25,0c-.15,0-.23,0-.23-.1a.1.1,0,0,1,.11-.1,2.38,2.38,0,0,0,.36,0c.56-.07.8-.49,1-1.09Zm1.37,4.95c.06,0,.06,0,0-.08l-1.21-3.26q-.1-.28-.21,0l-1.15,3.26c0,.06,0,.08,0,.08Z" transform="translate(-83.23 -155.15)"/><path d="M158.09,195.51c0,1.76,0,2.47.25,2.68s.67.28,1.64.28c.65,0,1.19,0,1.49-.36a1.53,1.53,0,0,0,.29-.68c0-.08.06-.15.13-.15s.08.06.08.18a7.18,7.18,0,0,1-.18,1.19c-.09.28-.13.32-.79.32-.88,0-1.57,0-2.14,0l-1.35,0s-.26,0-.5,0l-.72,0c-.12,0-.19,0-.19-.1a.1.1,0,0,1,.1-.1,1.76,1.76,0,0,0,.38-.06c.23-.05.26-.28.32-.63a24.25,24.25,0,0,0,.07-2.57v-2.11c0-1.84,0-2.18,0-2.56s-.1-.6-.5-.66l-.42,0a.12.12,0,0,1-.1-.1c0-.07.05-.1.19-.1.56,0,1.33,0,1.4,0l1.36,0c.13,0,.2,0,.2.1s-.06.08-.1.08l-.41,0c-.36.07-.43.25-.46.67s0,.72,0,2.56v2.13Z" transform="translate(-83.23 -155.15)"/><path d="M168.21,192.42c0-2.19,0-2.58,0-3s-.14-.7-.6-.8a3.58,3.58,0,0,0-.48,0s-.11,0-.11-.08.07-.11.23-.11c.63,0,1.51,0,1.58,0s1.22,0,1.65,0A4.32,4.32,0,0,1,173,189a2.43,2.43,0,0,1,1,1.91,4.31,4.31,0,0,1-1.69,3.23c1.14,1.47,2.1,2.72,2.91,3.59a2.93,2.93,0,0,0,1.71,1,3.55,3.55,0,0,0,.55,0c.07,0,.12,0,.12.08s-.08.12-.33.12h-1a2.83,2.83,0,0,1-1.5-.27,7.35,7.35,0,0,1-1.89-2.06c-.59-.77-1.25-1.71-1.53-2.07a.2.2,0,0,0-.18-.09l-1.72,0c-.07,0-.1,0-.1.11v.33c0,1.35,0,2.45.07,3,0,.41.13.72.55.77a5.5,5.5,0,0,0,.63.06c.08,0,.11,0,.11.08s-.07.12-.23.12c-.77,0-1.65,0-1.72,0s-.9,0-1.32,0c-.15,0-.22,0-.22-.12s0-.08.11-.08a1.93,1.93,0,0,0,.42-.06c.28-.05.35-.36.41-.77.07-.58.07-1.69.07-3v-2.46Zm1.12,1.22a.17.17,0,0,0,.1.16,3.74,3.74,0,0,0,1.47.23,1.76,1.76,0,0,0,1-.27,2.54,2.54,0,0,0,.86-2.15c0-1.76-.93-2.81-2.43-2.81a4.27,4.27,0,0,0-.94.09.18.18,0,0,0-.11.17v4.58Z" transform="translate(-83.23 -155.15)"/><path d="M177.88,193.38c0-1.84,0-2.18,0-2.56s-.1-.6-.51-.66l-.42,0a.12.12,0,0,1-.1-.09c0-.07.06-.1.2-.1.56,0,1.36,0,1.43,0h2.94l.56-.07a.58.58,0,0,1,.17-.06s.06.06.06.11-.07.23-.1.56c0,.11-.05.65-.07.79s-.06.12-.11.12-.1,0-.1-.15a1.52,1.52,0,0,0-.07-.42c-.09-.2-.21-.28-.89-.36-.21,0-1.64-.05-1.77-.05s-.07.05-.07.13v3.24c0,.08,0,.12.07.12s1.77,0,2.06,0a.94.94,0,0,0,.6-.16c.08-.09.14-.16.18-.16s.07,0,.07.1-.07.27-.1.66c0,.24,0,.68,0,.77s0,.22-.12.22-.08,0-.08-.11a1,1,0,0,0-.06-.39c0-.17-.15-.31-.63-.37-.33,0-1.65-.05-1.86-.05s-.08,0-.08.08v1c0,.4,0,1.79,0,2,0,.8.25.95,1.47.95a4.28,4.28,0,0,0,1.23-.12.91.91,0,0,0,.56-.83c0-.14.06-.18.13-.18s.08.1.08.18a10,10,0,0,1-.17,1.15c-.08.31-.21.31-.69.31-.92,0-1.63,0-2.14,0l-1,0h-.53l-.72,0c-.12,0-.19,0-.19-.1a.09.09,0,0,1,.1-.1c.11,0,.26,0,.37-.05s.27-.28.33-.63a24.36,24.36,0,0,0,.07-2.58v-2.11Z" transform="translate(-83.23 -155.15)"/><path d="M190.84,195.91c0-1,0-1.11-.53-1.21l-.43,0a.11.11,0,0,1-.09-.1c0-.08.05-.09.19-.09l1.46,0,1.2,0c.14,0,.2,0,.2.09a.12.12,0,0,1-.1.1,1.32,1.32,0,0,0-.31,0c-.33.06-.43.24-.46.66s0,.73,0,1.23v1.33c0,.55,0,.56-.16.65a6.39,6.39,0,0,1-2.62.53,6.28,6.28,0,0,1-4.07-1.27,4.59,4.59,0,0,1-1.47-3.39,4.46,4.46,0,0,1,2.06-3.91,6.24,6.24,0,0,1,3.28-.76,9.91,9.91,0,0,1,1.89.2,6,6,0,0,0,1,.12c.12,0,.15.06.15.12s-.07.49-.07,1.68c0,.19-.06.25-.14.25s-.08-.07-.08-.18a1.93,1.93,0,0,0-.28-.79c-.31-.45-1.25-.92-2.85-.92A3.89,3.89,0,0,0,186,191a3.71,3.71,0,0,0-1.21,3,4.72,4.72,0,0,0,1.3,3.29,4.41,4.41,0,0,0,3.15,1.25,3.13,3.13,0,0,0,1.33-.23c.15-.08.25-.14.25-.36v-2.06Z" transform="translate(-83.23 -155.15)"/><path d="M196.23,195.49c0,1.14,0,2.08.05,2.57s.09.58.45.63a4.69,4.69,0,0,0,.56.06.1.1,0,0,1,.1.1c0,.05-.06.1-.2.1-.68,0-1.48,0-1.54,0s-.84,0-1.22,0c-.12,0-.19,0-.19-.1a.1.1,0,0,1,.1-.1,1.59,1.59,0,0,0,.37-.06c.24-.05.28-.28.33-.63s.07-1.43.07-2.57v-2.11c0-1.84,0-2.18,0-2.56s-.13-.59-.39-.64a2.2,2.2,0,0,0-.38-.05.1.1,0,0,1-.1-.09c0-.07.06-.1.19-.1l1.25,0,1.23,0c.14,0,.2,0,.2.1a.12.12,0,0,1-.1.09,1.32,1.32,0,0,0-.31,0c-.33.07-.4.24-.43.66s0,.72,0,2.56v2.11Z" transform="translate(-83.23 -155.15)"/><path d="M203.28,189.77c2.77,0,4.88,1.7,4.88,4.47a4.78,4.78,0,0,1-4.95,4.86,4.57,4.57,0,0,1-4.82-4.68A4.72,4.72,0,0,1,203.28,189.77Zm.28,8.84c1.11,0,3.34-.59,3.34-4,0-2.85-1.74-4.35-3.69-4.35s-3.54,1.29-3.54,3.88C199.67,196.87,201.33,198.61,203.56,198.61Z" transform="translate(-83.23 -155.15)"/><path d="M210.69,197.32c0,1,.14,1.28.47,1.36a2.76,2.76,0,0,0,.62.07.09.09,0,0,1,.1.1c0,.07-.09.1-.23.1-.7,0-1.19,0-1.3,0s-.63,0-1.19,0c-.13,0-.2,0-.2-.1a.1.1,0,0,1,.1-.1,1.84,1.84,0,0,0,.51-.07c.31-.08.35-.41.35-1.49v-6.82c0-.47.07-.6.17-.6s.35.24.47.36,2,2.1,3.9,4.07c1.22,1.26,2.53,2.67,2.91,3.06l-.13-6c0-.77-.08-1-.46-1.11a4.25,4.25,0,0,0-.6-.06.1.1,0,0,1-.1-.11c0-.07.1-.08.24-.08.56,0,1.15,0,1.29,0s.54,0,1,0c.12,0,.22,0,.22.08a.13.13,0,0,1-.14.11,1.3,1.3,0,0,0-.29,0c-.41.09-.44.32-.44,1l0,7c0,.79,0,.86-.1.86s-.25-.1-.94-.73c-.13-.11-1.91-1.86-3.21-3.22s-2.81-3-3.19-3.38Z" transform="translate(-83.23 -155.15)"/><path d="M234,194.88c0,1.35,0,2.45.07,3,0,.41.13.72.55.77a5.5,5.5,0,0,0,.63.06c.08,0,.11,0,.11.08s-.07.12-.22.12c-.77,0-1.66,0-1.73,0s-.95,0-1.37,0c-.15,0-.22,0-.22-.12s0-.08.11-.08a2.13,2.13,0,0,0,.42-.06c.28-.05.35-.36.4-.77.07-.59.07-1.69.07-3v-1.47a.08.08,0,0,0-.08-.08h-5.94s-.08,0-.08.08v1.47c0,1.35,0,2.45.07,3,0,.41.12.72.54.77a5.94,5.94,0,0,0,.63.06c.09,0,.11,0,.11.08s-.06.12-.22.12c-.77,0-1.65,0-1.72,0s-1,0-1.38,0c-.15,0-.22,0-.22-.12s0-.08.11-.08a1.93,1.93,0,0,0,.42-.06c.28-.05.35-.36.41-.77.07-.59.07-1.69.07-3v-2.46c0-2.19,0-2.58,0-3s-.14-.7-.6-.8a3.58,3.58,0,0,0-.48,0c-.06,0-.11,0-.11-.08s.07-.11.22-.11c.63,0,1.52,0,1.59,0s1,0,1.37,0c.15,0,.22,0,.22.11s0,.08-.11.08a3.39,3.39,0,0,0-.35,0c-.38.07-.49.31-.52.8s0,.84,0,3v.29a.08.08,0,0,0,.09.09h5.94s.08,0,.08-.09v-.29c0-2.19,0-2.58,0-3s-.14-.7-.6-.8a3.58,3.58,0,0,0-.48,0c-.05,0-.11,0-.11-.08s.07-.11.23-.11c.63,0,1.51,0,1.58,0s1,0,1.37,0c.16,0,.23,0,.23.11s-.06.08-.11.08a3.52,3.52,0,0,0-.36,0c-.37.07-.49.31-.51.8s0,.84,0,3v2.46Z" transform="translate(-83.23 -155.15)"/><path d="M238.14,193.38c0-1.84,0-2.18,0-2.56s-.1-.6-.5-.66l-.42,0a.12.12,0,0,1-.1-.09c0-.07.06-.1.19-.1.57,0,1.36,0,1.43,0h2.95l.56-.07a.52.52,0,0,1,.16-.06c.05,0,.06.06.06.11s-.07.23-.1.56c0,.11,0,.65-.07.79s-.05.12-.11.12-.1,0-.1-.15a1.22,1.22,0,0,0-.07-.42c-.08-.2-.21-.28-.88-.36-.21,0-1.64-.05-1.78-.05s-.07.05-.07.13v3.24c0,.08,0,.12.07.12s1.78,0,2.06,0,.48,0,.6-.16.14-.16.19-.16.07,0,.07.1-.07.27-.1.66c0,.24-.06.68-.06.77s0,.22-.11.22-.09,0-.09-.11a1.16,1.16,0,0,0,0-.39c0-.17-.16-.31-.63-.37s-1.66-.05-1.87-.05-.08,0-.08.08v1c0,.4,0,1.79,0,2,0,.8.25.95,1.47.95a4.28,4.28,0,0,0,1.23-.12.89.89,0,0,0,.56-.83c0-.14.06-.18.13-.18s.08.1.08.18a9.67,9.67,0,0,1-.16,1.15c-.09.31-.21.31-.69.31-.93,0-1.64,0-2.14,0l-1,0h-.53l-.71,0c-.13,0-.2,0-.2-.1a.1.1,0,0,1,.1-.1c.11,0,.27,0,.38-.05s.26-.28.32-.63a24.36,24.36,0,0,0,.07-2.58v-2.11Z" transform="translate(-83.23 -155.15)"/><path d="M247.17,190.18c.15-.4.21-.47.29-.47s.17.17.3.44c.22.5,2.2,5.42,3,7.23.45,1.06.79,1.22,1,1.3a1.66,1.66,0,0,0,.5.07c.07,0,.15,0,.15.1s-.14.1-.28.1-1.09,0-1.95,0c-.24,0-.43,0-.43-.09s0-.05.08-.08a.22.22,0,0,0,.11-.32l-1.1-2.73c0-.06-.05-.07-.11-.07h-2.85c-.06,0-.1,0-.12.1l-.71,1.9a2.49,2.49,0,0,0-.18.8c0,.24.21.32.42.32h.11c.1,0,.13,0,.13.1s-.07.1-.18.1c-.3,0-1,0-1.11,0s-.74,0-1.24,0c-.16,0-.24,0-.24-.1a.1.1,0,0,1,.11-.1,2.28,2.28,0,0,0,.36,0c.56-.07.8-.49,1-1.09Zm1.37,4.95c.06,0,.06,0,.05-.08l-1.22-3.26q-.1-.28-.21,0L246,195.05c0,.06,0,.08,0,.08Z" transform="translate(-83.23 -155.15)"/><path d="M254.59,195.51c0,1.76,0,2.47.25,2.68s.67.28,1.64.28c.65,0,1.19,0,1.49-.36a1.53,1.53,0,0,0,.29-.68c0-.08.06-.15.13-.15s.08.06.08.18a7.18,7.18,0,0,1-.18,1.19c-.09.28-.13.32-.79.32-.88,0-1.57,0-2.14,0l-1.35,0s-.26,0-.5,0l-.71,0c-.13,0-.2,0-.2-.1a.1.1,0,0,1,.1-.1,1.76,1.76,0,0,0,.38-.06c.23-.05.26-.28.32-.63a24.25,24.25,0,0,0,.07-2.57v-2.11c0-1.84,0-2.18,0-2.56s-.1-.6-.5-.66l-.42,0a.12.12,0,0,1-.1-.1c0-.07.05-.1.19-.1.56,0,1.33,0,1.4,0l1.36,0c.13,0,.2,0,.2.1s-.06.08-.1.08l-.41,0c-.36.07-.43.25-.46.67s0,.72,0,2.56v2.13Z" transform="translate(-83.23 -155.15)"/><path d="M262.32,195.49c0,1.14,0,2.08.06,2.57s.09.58.47.63a4.48,4.48,0,0,0,.56.06.09.09,0,0,1,.1.1c0,.05-.05.1-.19.1-.68,0-1.46,0-1.53,0s-.91,0-1.27,0c-.14,0-.2,0-.2-.1a.09.09,0,0,1,.1-.09,1.49,1.49,0,0,0,.36,0c.25-.06.32-.3.37-.65s.05-1.43.05-2.57v-5l-1.78,0c-.77,0-1.06.1-1.24.38a2,2,0,0,0-.2.38c0,.1-.07.11-.12.11a.1.1,0,0,1-.09-.1c0-.12.25-1.19.27-1.29s.08-.22.12-.22a4.17,4.17,0,0,0,.55.14c.35,0,.83.06,1,.06h4.65a5.8,5.8,0,0,0,.88-.06c.18,0,.29-.06.35-.06s.06.07.06.14c0,.37-.05,1.22-.05,1.36s-.05.16-.11.16-.08,0-.1-.21v-.13c0-.36-.31-.63-1.48-.66l-1.55,0v5Z" transform="translate(-83.23 -155.15)"/><path d="M275.13,195.49c0,1.14,0,2.08.07,2.57s.07.58.45.63a4.55,4.55,0,0,0,.55.06.1.1,0,0,1,.11.1c0,.05-.07.1-.21.1-.68,0-1.46,0-1.53,0s-.85,0-1.22,0c-.14,0-.2,0-.2-.1a.1.1,0,0,1,.1-.1,1.51,1.51,0,0,0,.37-.06c.25-.05.29-.29.33-.64s.06-1.39.06-2.54v-1.19a.06.06,0,0,0-.07-.07H268.8a.06.06,0,0,0-.07.07v1.19c0,1.15,0,2.06.06,2.55s.08.58.44.63a4.91,4.91,0,0,0,.56.06.09.09,0,0,1,.1.1c0,.05-.05.09-.19.09-.69,0-1.47,0-1.53,0s-.85,0-1.23,0c-.13,0-.2,0-.2-.09a.09.09,0,0,1,.1-.1,1.67,1.67,0,0,0,.38-.06c.24-.05.27-.28.32-.63a24.36,24.36,0,0,0,.07-2.58v-2.1c0-1.85,0-2.18,0-2.56s-.1-.6-.5-.66l-.42,0a.12.12,0,0,1-.1-.09c0-.07.06-.1.2-.1.56,0,1.34,0,1.41,0l1.22,0c.14,0,.2,0,.2.1a.12.12,0,0,1-.1.09,1.28,1.28,0,0,0-.31,0c-.34.07-.41.24-.44.66s0,.74,0,2.59v.25c0,.07,0,.07.07.07h5.14s.07,0,.07-.07v-.25c0-1.85,0-2.21,0-2.59s-.08-.6-.49-.66l-.42,0a.11.11,0,0,1-.1-.09c0-.07.06-.1.2-.1.55,0,1.34,0,1.4,0l1.22,0c.14,0,.21,0,.21.1s-.06.09-.11.09a1.32,1.32,0,0,0-.31,0c-.32.07-.39.24-.42.66s0,.71,0,2.56v2.11Z" transform="translate(-83.23 -155.15)"/><path class="cls-1" d="M83.23,155.15v3.23A49.88,49.88,0,0,1,103.91,166v-.48A57.79,57.79,0,0,0,83.23,155.15Z" transform="translate(-83.23 -155.15)"/><path class="cls-2" d="M88.36,167.84a11.87,11.87,0,0,1,5.17-1,15.23,15.23,0,0,1,6.36,1.34,16.26,16.26,0,0,1,4,2.58v-2.45a50,50,0,0,0-20.68-7.62v10A17.11,17.11,0,0,1,88.36,167.84Z" transform="translate(-83.23 -155.15)"/><polygon class="cls-2" points="10.36 14.15 1.66 18.14 19.17 18.14 10.36 14.15"/><path class="cls-3" d="M83.23,196.7a58,58,0,0,0,20.68,10.36v-3.23a50.12,50.12,0,0,1-20.68-7.61Z" transform="translate(-83.23 -155.15)"/><path class="cls-2" d="M86,195.22V177.06A2.84,2.84,0,0,1,89,175v21.87A14.86,14.86,0,0,1,86,195.22Z" transform="translate(-83.23 -155.15)"/><path class="cls-2" d="M92,198.06v-21A2.84,2.84,0,0,1,95,175v24.24A18.32,18.32,0,0,1,92,198.06Z" transform="translate(-83.23 -155.15)"/><path class="cls-2" d="M97.94,200.05v-23a2.83,2.83,0,0,1,3-2.07v25.75A21.25,21.25,0,0,1,97.94,200.05Z" transform="translate(-83.23 -155.15)"/><path d="M109.72,178.84c0-1.84,0-2.18,0-2.55s-.12-.6-.51-.68a2.69,2.69,0,0,0-.4,0c-.05,0-.1,0-.1-.07s.06-.1.19-.1c.53,0,1.25,0,1.36,0s.82,0,1.17,0c.13,0,.19,0,.19.1s0,.07-.1.07l-.29,0c-.32,0-.42.26-.44.68s0,.7,0,2.55v1.65c0,1.71.37,2.44.88,2.92a2.29,2.29,0,0,0,1.79.65,2.46,2.46,0,0,0,1.85-.85,4.52,4.52,0,0,0,.69-2.89v-1.48c0-1.84,0-2.18,0-2.55s-.12-.6-.51-.68a2.69,2.69,0,0,0-.4,0s-.1,0-.1-.07.06-.1.19-.1c.53,0,1.18,0,1.25,0s.64,0,1,0c.13,0,.19,0,.19.1s0,.07-.1.07l-.3,0c-.31.07-.41.26-.43.68s0,.7,0,2.55v1.26a4.64,4.64,0,0,1-1.09,3.54,3.44,3.44,0,0,1-2.44.87,3.61,3.61,0,0,1-2.43-.83,3.92,3.92,0,0,1-1-3.11v-1.73Z" transform="translate(-83.23 -155.15)"/><path d="M119.32,183c0,.83.11,1.07.4,1.14a2.29,2.29,0,0,0,.52.06.08.08,0,0,1,.08.09c0,.06-.07.08-.19.08-.59,0-1,0-1.1,0s-.53,0-1,0c-.11,0-.17,0-.17-.08a.09.09,0,0,1,.08-.09,1.51,1.51,0,0,0,.43-.06c.26-.07.3-.34.3-1.25v-5.76c0-.4.06-.5.14-.5s.29.2.4.3,1.68,1.78,3.29,3.43c1,1.07,2.14,2.26,2.46,2.59l-.11-5c0-.65-.07-.88-.39-.94a4.46,4.46,0,0,0-.51-.05.08.08,0,0,1-.08-.09c0-.06.08-.07.2-.07l1.09,0,.88,0c.11,0,.19,0,.19.07a.11.11,0,0,1-.11.09.91.91,0,0,0-.25,0c-.35.07-.37.27-.37.87l0,5.89c0,.66,0,.72-.08.72s-.21-.08-.79-.62c-.11-.09-1.61-1.57-2.71-2.71s-2.37-2.5-2.69-2.85Z" transform="translate(-83.23 -155.15)"/><path d="M129.43,181.43c0,1,0,1.76,0,2.17s.07.49.38.54l.47,0a.08.08,0,0,1,.08.09s0,.08-.16.08c-.58,0-1.26,0-1.3,0s-.71,0-1,0c-.11,0-.17,0-.17-.08a.09.09,0,0,1,.09-.09,1.87,1.87,0,0,0,.32,0c.2,0,.23-.24.27-.54s.06-1.2.06-2.17v-1.78c0-1.55,0-1.84,0-2.16s-.1-.49-.33-.54a1.45,1.45,0,0,0-.32,0,.08.08,0,0,1-.08-.08c0-.06,0-.08.17-.08l1,0,1,0c.12,0,.16,0,.16.08a.09.09,0,0,1-.08.08.93.93,0,0,0-.26,0c-.28.06-.34.2-.37.55s0,.6,0,2.16v1.78Z" transform="translate(-83.23 -155.15)"/><path d="M135.36,183c.61-1.35,2-4.78,2.19-5.5a1.79,1.79,0,0,0,.1-.38.21.21,0,0,0-.15-.21,1,1,0,0,0-.35,0c-.06,0-.12,0-.12-.08s.07-.08.24-.08l1,0,.82,0c.11,0,.16,0,.16.07s0,.09-.11.09a1,1,0,0,0-.5.12c-.14.1-.31.24-.58.92-.12.29-.63,1.49-1.16,2.72-.64,1.47-1.1,2.56-1.33,3.05s-.35.76-.45.76-.19-.13-.39-.61l-2.56-6.16c-.23-.57-.37-.68-.72-.76a1.74,1.74,0,0,0-.4,0,.09.09,0,0,1-.08-.09c0-.06.1-.07.27-.07l1.22,0,1,0c.19,0,.29,0,.29.07s0,.09-.11.09a1.17,1.17,0,0,0-.38.05.17.17,0,0,0-.11.18,3.85,3.85,0,0,0,.28.84Z" transform="translate(-83.23 -155.15)"/><path d="M140.8,179.65c0-1.55,0-1.84,0-2.16s-.09-.51-.43-.55l-.35,0a.1.1,0,0,1-.09-.08c0-.06.05-.08.17-.08l1.2,0h2.49c.2,0,.39-.05.47-.06a1,1,0,0,1,.14,0s.05,0,.05.09a4.35,4.35,0,0,0-.08.47c0,.1,0,.55-.06.67s0,.1-.1.1-.08-.05-.08-.13a1,1,0,0,0-.06-.35c-.07-.17-.18-.24-.74-.31-.18,0-1.39,0-1.51,0s-.06,0-.06.1V180c0,.07,0,.11.06.11s1.51,0,1.74,0,.4,0,.51-.15.12-.13.15-.13.06,0,.06.09a4.69,4.69,0,0,0-.08.55c0,.2-.05.58-.05.65s0,.19-.09.19-.07,0-.07-.09a.83.83,0,0,0-.05-.33c0-.15-.13-.26-.53-.31s-1.4,0-1.57,0a.07.07,0,0,0-.08.07v.84c0,.34,0,1.51,0,1.72,0,.67.22.8,1.25.8a3.38,3.38,0,0,0,1-.11.76.76,0,0,0,.47-.69c0-.12.05-.16.11-.16s.07.08.07.16a7.91,7.91,0,0,1-.14,1c-.08.26-.18.26-.58.26-.78,0-1.39,0-1.81,0s-.71,0-.87,0l-.44,0-.61,0c-.1,0-.16,0-.16-.08a.08.08,0,0,1,.08-.09c.09,0,.23,0,.32,0s.22-.24.27-.54a20.06,20.06,0,0,0,.06-2.17v-1.78Z" transform="translate(-83.23 -155.15)"/><path d="M146.36,179.65c0-1.55,0-1.84,0-2.16s-.08-.51-.42-.55l-.36,0a.09.09,0,0,1-.08-.08c0-.06,0-.08.16-.08l1.23,0,1.3,0a3.4,3.4,0,0,1,1.94.44,1.74,1.74,0,0,1,.72,1.37,2.94,2.94,0,0,1-1.28,2.29c.85,1.06,1.58,2,2.18,2.6a1.91,1.91,0,0,0,1.16.7,2.18,2.18,0,0,0,.36,0,.1.1,0,0,1,.1.09c0,.06-.06.08-.25.08h-.65a2.11,2.11,0,0,1-1.11-.2,5.3,5.3,0,0,1-1.42-1.48c-.44-.54-.9-1.19-1.12-1.47a.2.2,0,0,0-.15,0l-1.32,0c-.05,0-.07,0-.07.09v.23c0,1,0,1.75.05,2.16s.09.49.41.54l.46,0c.07,0,.08,0,.08.09s0,.08-.16.08c-.57,0-1.23,0-1.28,0s-.71,0-1,0c-.11,0-.17,0-.17-.08a.08.08,0,0,1,.08-.09,1.65,1.65,0,0,0,.32,0c.2,0,.23-.24.27-.54a20.06,20.06,0,0,0,.06-2.17v-1.78Zm.9.86a.15.15,0,0,0,.07.13,3.69,3.69,0,0,0,1.15.15,1.32,1.32,0,0,0,.78-.18,1.78,1.78,0,0,0,.63-1.54,1.74,1.74,0,0,0-1.8-2,4.77,4.77,0,0,0-.74.06.13.13,0,0,0-.09.12v3.23Z" transform="translate(-83.23 -155.15)"/><path d="M153.09,184.21c-.15-.07-.16-.11-.16-.38,0-.5,0-.9.06-1.07s0-.16.09-.16.09,0,.09.12a1.72,1.72,0,0,0,0,.36,1.54,1.54,0,0,0,1.65,1c1,0,1.56-.58,1.56-1.34s-.39-1.06-1.31-1.75l-.48-.35c-1.12-.84-1.49-1.46-1.49-2.15,0-1.19.94-1.9,2.31-1.9a5,5,0,0,1,1.07.12,1.31,1.31,0,0,0,.37,0c.08,0,.11,0,.11.07a10.15,10.15,0,0,0-.05,1.06c0,.16,0,.23-.08.23s-.08-.05-.1-.13a1.8,1.8,0,0,0-.15-.5c-.07-.12-.42-.5-1.35-.5-.76,0-1.38.38-1.38,1.09s.32,1,1.35,1.7l.29.21c1.27.86,1.7,1.56,1.7,2.42a1.94,1.94,0,0,1-1,1.71,3.11,3.11,0,0,1-1.65.36A3.82,3.82,0,0,1,153.09,184.21Z" transform="translate(-83.23 -155.15)"/><path d="M160.15,181.43c0,1,0,1.76,0,2.17s.07.49.38.54l.47,0a.08.08,0,0,1,.08.09s0,.08-.16.08c-.58,0-1.25,0-1.3,0s-.71,0-1,0c-.11,0-.17,0-.17-.08a.09.09,0,0,1,.09-.09,1.87,1.87,0,0,0,.32,0c.2,0,.23-.24.27-.54s.06-1.2.06-2.17v-1.78c0-1.55,0-1.84,0-2.16s-.1-.49-.33-.54a1.45,1.45,0,0,0-.32,0,.08.08,0,0,1-.08-.08c0-.06.05-.08.17-.08l1,0,1,0c.12,0,.16,0,.16.08a.09.09,0,0,1-.08.08.93.93,0,0,0-.26,0c-.28.06-.34.2-.36.55s0,.6,0,2.16v1.78Z" transform="translate(-83.23 -155.15)"/><path d="M165.84,181.43c0,1,0,1.76,0,2.17s.08.49.4.54l.47,0c.07,0,.08,0,.08.09s-.05.08-.16.08c-.57,0-1.23,0-1.29,0s-.77,0-1.08,0c-.12,0-.16,0-.16-.08a.07.07,0,0,1,.08-.08,1.76,1.76,0,0,0,.31,0c.21-.05.27-.25.31-.55s0-1.2,0-2.17v-4.22l-1.5,0c-.65,0-.9.08-1,.32a2.12,2.12,0,0,0-.17.32c0,.08-.06.09-.1.09a.07.07,0,0,1-.07-.08c0-.1.21-1,.22-1.09s.07-.18.11-.18a3,3,0,0,0,.46.11,7.27,7.27,0,0,0,.81.05h3.93a4.23,4.23,0,0,0,.74-.05l.3,0c.05,0,.05.06.05.11,0,.31,0,1,0,1.15s-.05.13-.09.13-.08,0-.09-.18v-.1c0-.31-.26-.53-1.25-.56l-1.3,0v4.22Z" transform="translate(-83.23 -155.15)"/><path d="M172.67,181.74a1.72,1.72,0,0,0-.23-1c-.08-.16-1.49-2.39-1.84-2.92a2.65,2.65,0,0,0-.69-.74,1,1,0,0,0-.44-.14.11.11,0,0,1-.1-.09s0-.07.13-.07l1,0,.9,0c.12,0,.14,0,.14.07s-.07.07-.17.1a.19.19,0,0,0-.13.17.84.84,0,0,0,.14.39l1.89,3.13c.22-.42,1.52-2.57,1.71-2.91a1,1,0,0,0,.17-.52c0-.14,0-.22-.16-.26s-.15-.07-.15-.11,0-.06.16-.06l.72,0,1,0c.07,0,.13,0,.13.06a.12.12,0,0,1-.13.1,1.16,1.16,0,0,0-.49.13,2,2,0,0,0-.52.5c-.34.4-1.81,2.77-2,3.19a2,2,0,0,0-.13,1v.87c0,.16,0,.59,0,1s.09.49.4.53a3,3,0,0,0,.47.05.08.08,0,0,1,.08.08c0,.05-.06.09-.16.09-.58,0-1.26,0-1.31,0s-.71,0-1,0c-.12,0-.17,0-.17-.09a.09.09,0,0,1,.09-.08,1.18,1.18,0,0,0,.31-.05c.21,0,.28-.23.3-.53s0-.84,0-1v-.86Z" transform="translate(-83.23 -155.15)"/><path d="M198.78,182.82c0,.43.13,1.09.63,1.26a2.79,2.79,0,0,0,.77.1c.06,0,.1,0,.1.06s-.11.11-.25.11-1.54,0-2-.07c-.28,0-.34-.06-.34-.12s0-.07.09-.08.07-.22,0-.43l-.56-6.1h0l-2.9,6.15c-.24.52-.28.62-.38.62s-.15-.11-.37-.54c-.31-.58-1.33-2.62-1.38-2.74s-1.43-3-1.57-3.37h0l-.47,5.48c0,.19,0,.41,0,.61a.37.37,0,0,0,.31.36,2,2,0,0,0,.45.06c.05,0,.1,0,.1.06s-.08.11-.22.11c-.43,0-1,0-1.1,0s-.67,0-1,0c-.12,0-.2,0-.2-.11s.06-.06.12-.06a1.79,1.79,0,0,0,.35,0c.39-.07.43-.54.48-1l.85-7.7c0-.13.06-.22.13-.22s.12,0,.17.18l3.62,7.44,3.48-7.43c.05-.1.09-.19.18-.19s.11.1.14.32Z" transform="translate(-83.23 -155.15)"/><path d="M204,177c.13-.33.18-.39.25-.39s.14.14.25.36c.19.43,1.85,4.58,2.49,6.1.38.9.66,1,.89,1.1a1.35,1.35,0,0,0,.41.06c.06,0,.13,0,.13.09s-.12.08-.23.08-.93,0-1.65,0c-.2,0-.36,0-.36-.07s0,0,.07-.08.16-.1.09-.27l-.93-2.3c0-.05,0-.06-.1-.06h-2.4a.1.1,0,0,0-.1.08l-.59,1.61a2,2,0,0,0-.16.67c0,.2.18.27.36.27h.09c.09,0,.11,0,.11.09s-.06.08-.16.08-.81,0-.93,0-.63,0-1.05,0c-.13,0-.2,0-.2-.08a.1.1,0,0,1,.09-.09l.31,0c.47-.06.67-.41.87-.92Zm1.16,4.18s0,0,0-.07l-1-2.75q-.09-.24-.18,0l-1,2.75c0,.05,0,.07,0,.07Z" transform="translate(-83.23 -155.15)"/><path d="M209.28,179.65c0-1.55,0-1.84,0-2.16s-.08-.51-.42-.55l-.36,0a.1.1,0,0,1-.08-.08c0-.06.05-.08.17-.08l1.23,0,1.3,0a3.41,3.41,0,0,1,1.94.44,1.74,1.74,0,0,1,.72,1.37,2.94,2.94,0,0,1-1.28,2.29c.85,1.06,1.57,2,2.17,2.6a1.94,1.94,0,0,0,1.16.7,2.27,2.27,0,0,0,.37,0,.09.09,0,0,1,.09.09c0,.06,0,.08-.24.08h-.65a2.13,2.13,0,0,1-1.12-.2,5.3,5.3,0,0,1-1.41-1.48c-.44-.54-.9-1.19-1.13-1.47a.16.16,0,0,0-.14,0l-1.32,0c-.05,0-.08,0-.08.09v.23c0,1,0,1.75.05,2.16s.1.49.42.54l.46,0c.07,0,.08,0,.08.09s-.05.08-.16.08c-.57,0-1.24,0-1.28,0s-.71,0-1,0c-.11,0-.17,0-.17-.08a.09.09,0,0,1,.09-.09,1.87,1.87,0,0,0,.32,0c.2,0,.22-.24.27-.54a20.06,20.06,0,0,0,.06-2.17v-1.78Zm.9.86a.15.15,0,0,0,.07.13,3.57,3.57,0,0,0,1.14.15,1.3,1.3,0,0,0,.78-.18,1.78,1.78,0,0,0,.63-1.54,1.73,1.73,0,0,0-1.8-2,5,5,0,0,0-.74.06.12.12,0,0,0-.08.12v3.23Z" transform="translate(-83.23 -155.15)"/><path d="M218,181.74a1.81,1.81,0,0,0-.22-1c-.08-.16-1.49-2.39-1.85-2.92a2.5,2.5,0,0,0-.68-.74,1.13,1.13,0,0,0-.44-.14.11.11,0,0,1-.11-.09s0-.07.13-.07l1,0,.9,0c.12,0,.14,0,.14.07s-.07.07-.16.1a.19.19,0,0,0-.13.17.84.84,0,0,0,.14.39l1.89,3.13c.22-.42,1.52-2.57,1.71-2.91a1.14,1.14,0,0,0,.17-.52.24.24,0,0,0-.16-.26c-.1,0-.16-.07-.16-.11s.06-.06.17-.06l.72,0,1,0c.08,0,.14,0,.14.06a.13.13,0,0,1-.14.1,1.15,1.15,0,0,0-.48.13,2,2,0,0,0-.52.5c-.34.4-1.81,2.77-2,3.19a2,2,0,0,0-.13,1v.87c0,.16,0,.59,0,1s.1.49.4.53a3.13,3.13,0,0,0,.48.05.08.08,0,0,1,.08.08c0,.05-.06.09-.16.09-.58,0-1.26,0-1.32,0s-.71,0-1,0c-.12,0-.17,0-.17-.09a.08.08,0,0,1,.08-.08,1.06,1.06,0,0,0,.31-.05c.21,0,.29-.23.31-.53s0-.84,0-1v-.86Z" transform="translate(-83.23 -155.15)"/><path d="M224.52,181.45c0,1.48,0,2.08.22,2.26s.56.24,1.38.24c.54,0,1,0,1.25-.31a1.18,1.18,0,0,0,.25-.57c0-.07,0-.13.11-.13s.07.05.07.16a6.74,6.74,0,0,1-.15,1c-.08.24-.11.27-.67.27-.74,0-1.32,0-1.8,0l-1.14,0h-.42l-.61,0c-.1,0-.16,0-.16-.09a.08.08,0,0,1,.08-.08,1.25,1.25,0,0,0,.32-.05c.2,0,.22-.23.27-.53a20.06,20.06,0,0,0,.06-2.17v-1.78c0-1.56,0-1.84,0-2.16s-.08-.51-.42-.55a2,2,0,0,0-.36,0,.1.1,0,0,1-.08-.08c0-.06.05-.08.17-.08l1.18,0,1.15,0c.1,0,.16,0,.16.08s0,.07-.08.07l-.34,0c-.31.06-.37.22-.39.57s0,.6,0,2.16v1.8Z" transform="translate(-83.23 -155.15)"/><path d="M231.83,177c.13-.33.18-.39.24-.39s.15.14.25.36c.19.43,1.86,4.58,2.5,6.1.38.9.66,1,.88,1.1a1.41,1.41,0,0,0,.42.06c.06,0,.13,0,.13.09s-.12.08-.24.08-.92,0-1.64,0c-.2,0-.37,0-.37-.07s0,0,.07-.08a.19.19,0,0,0,.1-.27l-.93-2.3c0-.05,0-.06-.1-.06h-2.4c-.05,0-.08,0-.11.08l-.59,1.61a2.22,2.22,0,0,0-.15.67c0,.2.18.27.36.27h.09c.08,0,.1,0,.1.09s-.05.08-.15.08c-.25,0-.81,0-.93,0s-.63,0-1.05,0c-.14,0-.21,0-.21-.08a.1.1,0,0,1,.1-.09l.31,0c.47-.06.67-.41.87-.92Zm1.16,4.18s0,0,0-.07l-1-2.75c-.06-.16-.11-.16-.17,0l-1,2.75c0,.05,0,.07,0,.07Z" transform="translate(-83.23 -155.15)"/><path d="M238.05,183c0,.83.12,1.07.41,1.14a2.29,2.29,0,0,0,.52.06.08.08,0,0,1,.08.09c0,.06-.07.08-.19.08-.59,0-1,0-1.1,0s-.53,0-1,0c-.11,0-.17,0-.17-.08a.09.09,0,0,1,.08-.09,1.51,1.51,0,0,0,.43-.06c.26-.07.29-.34.29-1.25v-5.76c0-.4.07-.5.15-.5s.29.2.4.3,1.68,1.78,3.29,3.43l2.45,2.59-.1-5c0-.65-.07-.88-.39-.94a4.46,4.46,0,0,0-.51-.05.08.08,0,0,1-.08-.09c0-.06.08-.07.2-.07l1.09,0,.88,0c.11,0,.19,0,.19.07a.11.11,0,0,1-.12.09,1,1,0,0,0-.25,0c-.34.07-.36.27-.36.87l0,5.89c0,.66,0,.72-.08.72s-.21-.08-.79-.62c-.11-.09-1.61-1.57-2.71-2.71s-2.37-2.5-2.69-2.85Z" transform="translate(-83.23 -155.15)"/><path d="M246.28,179.65c0-1.55,0-1.84,0-2.16s-.08-.51-.43-.55l-.35,0a.1.1,0,0,1-.09-.08c0-.06.05-.08.17-.08l1.21,0,1.39,0c1,0,2.94-.1,4.18,1.14a3.53,3.53,0,0,1,1,2.56,4,4,0,0,1-1.12,2.82,4.2,4.2,0,0,1-3.16,1.16c-.45,0-1,0-1.45-.06l-.85-.06-.43,0-.62,0c-.11,0-.17,0-.17-.08a.08.08,0,0,1,.08-.09,1.65,1.65,0,0,0,.32,0c.2,0,.23-.24.27-.54a20.06,20.06,0,0,0,.06-2.17v-1.78Zm.95,1.09c0,1.07,0,2,0,2.19a1.91,1.91,0,0,0,.12.72c.13.19.49.4,1.72.4a3.51,3.51,0,0,0,2.44-.91,3.4,3.4,0,0,0,.82-2.39,3.45,3.45,0,0,0-1-2.51,4.26,4.26,0,0,0-3.36-1.13,3.06,3.06,0,0,0-.63.07.18.18,0,0,0-.13.2v3.36Z" transform="translate(-83.23 -155.15)"/><path d="M182.53,180.61a2.85,2.85,0,0,1-.36,1.35,2.75,2.75,0,0,1-1,1,2.4,2.4,0,0,1-1.25.39,1.37,1.37,0,0,1-1-.39,1.39,1.39,0,0,1-.4-1,2.64,2.64,0,0,1,.39-1.34,2.81,2.81,0,0,1,1-1.06,2.39,2.39,0,0,1,1.24-.39,1.34,1.34,0,0,1,1,.39A1.42,1.42,0,0,1,182.53,180.61Zm-.76-.32a.89.89,0,0,0-.2-.64.7.7,0,0,0-.53-.23q-.67,0-1.23,1a3.68,3.68,0,0,0-.56,1.9.89.89,0,0,0,.22.66.68.68,0,0,0,.54.24c.43,0,.83-.32,1.2-1A3.73,3.73,0,0,0,181.77,180.29Z" transform="translate(-83.23 -155.15)"/><path d="M185.45,179.3l-.08.3h-.67l-.5,2a12.41,12.41,0,0,1-.66,2,3.55,3.55,0,0,1-1,1.4,1.47,1.47,0,0,1-.83.29.74.74,0,0,1-.47-.16.39.39,0,0,1-.14-.3.32.32,0,0,1,.12-.25.39.39,0,0,1,.28-.11.32.32,0,0,1,.21.08.25.25,0,0,1,.08.18.26.26,0,0,1-.09.19s-.08.07-.08.09a.06.06,0,0,0,0,.06.18.18,0,0,0,.13,0,.76.76,0,0,0,.41-.13,1.2,1.2,0,0,0,.39-.36,3.35,3.35,0,0,0,.32-.7c0-.13.15-.55.34-1.26l.79-3.07h-.79l.06-.3a1.92,1.92,0,0,0,.52-.05.61.61,0,0,0,.28-.2,3.26,3.26,0,0,0,.32-.56,4.26,4.26,0,0,1,.52-.84,2.6,2.6,0,0,1,.7-.61,1.53,1.53,0,0,1,.7-.2.81.81,0,0,1,.55.18.5.5,0,0,1,.21.38.35.35,0,0,1-.1.26.33.33,0,0,1-.27.11.31.31,0,0,1-.23-.08.25.25,0,0,1-.09-.19.38.38,0,0,1,.06-.18.37.37,0,0,0,.06-.15.1.1,0,0,0,0-.09.29.29,0,0,0-.17-.05.75.75,0,0,0-.51.19,2,2,0,0,0-.55.75c-.08.18-.23.62-.45,1.33Z" transform="translate(-83.23 -155.15)"/></svg>